<svg xmlns="http://www.w3.org/2000/svg" width="18" height="18" viewBox="0 0 18 18"><path d="M13.35 10.123C14.37 9.048 15 7.6 15 6c0-3.313-2.687-6-6-6S3 2.687 3 6c0 1.6.63 3.048 1.65 4.123C1.877 11.657 0 14.608 0 18h18c0-3.392-1.878-6.343-4.65-7.877zM3.8 6C3.8 3.133 6.133.8 9 .8s5.2 2.333 5.2 5.2c0 1.475-.623 2.8-1.612 3.748-.222.21-.456.408-.71.578-.826.55-1.815.874-2.878.874s-2.052-.323-2.877-.874c-.255-.17-.49-.367-.71-.578C4.423 8.8 3.8 7.475 3.8 6zm1.474 4.698C6.298 11.51 7.59 12 9 12c1.41 0 2.702-.49 3.726-1.303 2.43 1.244 4.16 3.663 4.436 6.503H.84c.275-2.84 2.006-5.258 4.434-6.502z"/></svg>