<?xml version="1.0" encoding="iso-8859-1"?>
<!-- Generator: Adobe Illustrator 16.0.0, SVG Export Plug-In . SVG Version: 6.00 Build 0)  -->
<!DOCTYPE svg PUBLIC "-//W3C//DTD SVG 1.1//EN" "http://www.w3.org/Graphics/SVG/1.1/DTD/svg11.dtd">
<svg version="1.1" xmlns="http://www.w3.org/2000/svg" xmlns:xlink="http://www.w3.org/1999/xlink" x="0px" y="0px" width="29px"
	 height="29px" viewBox="0 0 29 29" style="enable-background:new 0 0 29 29;" xml:space="preserve">
<g id="Layer_7">
	<path fill="#A2A2A2" d="M14.5,28.2c-7.554,0-13.7-6.146-13.7-13.7S6.946,0.8,14.5,0.8s13.7,6.146,13.7,13.7
		S22.054,28.2,14.5,28.2 M14.5,29C22.508,29,29,22.508,29,14.5S22.508,0,14.5,0S0,6.492,0,14.5S6.492,29,14.5,29L14.5,29z"/>
</g>
<g id="Layer_11">
	<polygon fill="#000000" points="8,15 19.293,15 14.646,19.646 15.354,20.354 20.854,14.854 21.219,14.5 20.854,14.146 15.354,8.646 14.646,9.354
		19.293,14 8,14 	"/>
</g>
</svg>
