<?xml version="1.0" encoding="iso-8859-1"?>
<!-- Generator: Adobe Illustrator 16.0.0, SVG Export Plug-In . SVG Version: 6.00 Build 0)  -->
<!DOCTYPE svg PUBLIC "-//W3C//DTD SVG 1.1//EN" "http://www.w3.org/Graphics/SVG/1.1/DTD/svg11.dtd">
<svg version="1.1" id="Layer_1" xmlns="http://www.w3.org/2000/svg" xmlns:xlink="http://www.w3.org/1999/xlink" x="0px" y="0px"
	 width="29px" height="29px" viewBox="0 0 29 29" style="enable-background:new 0 0 29 29;" xml:space="preserve">
<g id="Layer_7">
	<path fill="#A2A2A2" d="M14.5,28.2c-7.555,0-13.7-6.146-13.7-13.7c0-7.554,6.146-13.7,13.7-13.7s13.7,6.146,13.7,13.7
		C28.2,22.055,22.055,28.2,14.5,28.2 M14.5,29C22.508,29,29,22.508,29,14.5S22.508,0,14.5,0S0,6.492,0,14.5S6.492,29,14.5,29
		L14.5,29z"/>
</g>
<g id="Layer_11">
	<polygon fill="#000000" points="21,14 9.707,14 14.354,9.354 13.646,8.646 8.146,14.146 7.781,14.5 8.146,14.854 13.646,20.354 14.354,19.646
		9.707,15 21,15 	"/>
</g>
</svg>
