<?xml version="1.0" encoding="utf-8"?>
<!-- Generator: Adobe Illustrator 16.0.0, SVG Export Plug-In . SVG Version: 6.00 Build 0)  -->
<!DOCTYPE svg PUBLIC "-//W3C//DTD SVG 1.1//EN" "http://www.w3.org/Graphics/SVG/1.1/DTD/svg11.dtd">
<svg version="1.1" id="Layer_1" xmlns="http://www.w3.org/2000/svg" xmlns:xlink="http://www.w3.org/1999/xlink" x="0px" y="0px"
	 width="18px" height="18px" viewBox="0 0 18 18" enable-background="new 0 0 18 18" xml:space="preserve">
<path d="M13.351,10.123C14.37,9.048,15,7.599,15,6c0-3.313-2.687-6-6-6S3,2.687,3,6c0,1.599,0.629,3.048,1.649,4.123
	C1.878,11.657,0,14.608,0,18h18C18,14.608,16.122,11.657,13.351,10.123z M3.8,6c0-2.867,2.333-5.2,5.2-5.2s5.2,2.333,5.2,5.2
	c0,1.475-0.623,2.801-1.612,3.748c-0.222,0.211-0.456,0.408-0.711,0.578C11.052,10.877,10.063,11.2,9,11.2s-2.052-0.323-2.877-0.874
	c-0.255-0.17-0.49-0.367-0.71-0.578C4.423,8.801,3.8,7.475,3.8,6z M5.274,10.698C6.298,11.511,7.591,12,9,12
	c1.409,0,2.702-0.489,3.726-1.303c2.429,1.244,4.159,3.663,4.436,6.503H0.839C1.115,14.361,2.846,11.942,5.274,10.698z"/>
</svg>
